<?xml version="1.0" encoding="UTF-8"?>
<svg id="Layer_2" data-name="Layer 2" xmlns="http://www.w3.org/2000/svg" viewBox="0 0 5000 3715.81">
  <defs>
    <style>
      .cls-1 {
        fill: #7c055c;
      }

      .cls-2 {
        fill: #9e055b;
      }

      .cls-3 {
        fill: #dd051a;
      }

      .cls-4 {
        fill: #5c067c;
      }

      .cls-5 {
        fill: #be063c;
      }
    </style>
  </defs>
  <g id="Layer_1-2" data-name="Layer 1">
    <path class="cls-1" d="M123.34,2036.65c-51.59,90.2-63.61,205-22.08,307.44,82.65-19.69,168.94-38.78,246.16-60.14,15.81-1.95,37.89,41.43,60.96,55.49-12.96,9.14-29.46,10.23-46.36,14.85l-232.98,63.71c65.98,98.36,159.69,164.88,266.74,206.37l82.76-105.73c13.43-17.15,25.21-34.1,41.38-49.61,24.5,18.69,44.93,43.14,71.61,58.59-4.65,9.52-11.87,18.85-20.27,27.64l-74.34,77.83c-4.46,4.67-21.36,8.98-17.33,19.77,28.35,17.54,63.65,20.04,96.4,27.06,44.39,9.51,86.64,16.78,132.14,16.79,33.63.01,66.02,6.32,101.67-.35-17.45-26.03-34.93-49.08-38.37-80.78,44.03,8.45,92.14,15.08,140.32,6.94,2.26,6.47-.1,10.07.16,13.59-10.39,21.12-21.74,39.26-45.42,58.25,49.3,4.16,92.74-9.72,139.07-20.46,46.42-10.76,91.4-23.78,131.88-47.81l-42.13-54.58,60.5-35.74,39.53,52.18c6.34,8.37,20.03-4.11,27.6-7.63,93.68-43.44,177.54-126.86,216.72-228.93,14.91-2.67,26.04-15.01,39.66-23.71l41.45-26.49c-6.85,8.24-2.62,19.63-4.48,30.86-35.45,213.73-270.56,364.74-464.15,415.06-45.53,11.83-89.8,24.59-136.45,27.89l-44.6,3.15c-36.55,2.58-154.78,1.68-190.96-1.38-209.44-17.72-422.34-91.96-563.65-252.67-63.69-72.43-110.15-158.34-108.58-251.8l.34-20.51c.06-3.54-.36-6.37-2.4-7.65-1.42-.89-4.12-.22-5.82-.16v-87.98c1.84.41,3.91.51,4.93-.49,1.33-1.3,3.06-4.15,3.42-7.25,10.39-89.98,40.86-126.39,51.46-167.76,7.08,14.79,48.56,45.02,63.53,56.16Z"/>
    <path class="cls-1" d="M5000,3504.29v63.32c-12.62,41.08-35.73,69.18-76.98,88.86-74.93,35.76-182.7,16.61-239.77-37.32l.91-43.69c9.77-9.64,21.27-27.26,37.14-31.02,18.21,2.16,33.34,20.26,50.7,27.22,37.28,14.95,75.08,21.84,111.14,3.31,14.5-7.45,34.47-28.24,20.5-43.82-15.63-17.44-44.96-22.54-67.72-26.88-39.59-7.56-74.3-18.77-110.51-33.97-75.3-31.61-74.23-120.04-44.17-165.61,69.06-104.69,227.73-99.24,310.11-12.57-8.77,13.49-49.74,66.28-57.73,66.29-10.07.01-63.6-62.01-144.09-33.91-19.8,6.91-39.68,28.29-31.16,49.37,6.47,16.01,27.78,23.34,42.98,28.69,81.82,28.83,153.25-.4,198.65,101.73Z"/>
    <path class="cls-4" d="M7.87,2272.29l-7.87-8.33v-19.99c1.7-.06,4.4-.73,5.82.16,2.04,1.28,2.46,4.11,2.4,7.65l-.34,20.51Z"/>
    <path class="cls-4" d="M3048.01,868.08c-16.92,22.46-39.2,40.42-59.15,60.26l-200.85-115.8-291.66-163.85c-10.36-5.82-20.64-8.79-30.86-2.95l-221.39,126.45-331.83,189.04-167.58,100.05c-14.76,8.81-17.34,31.89-16.49,46.3l2.88,48.65c1.36,23.03.15,42.08.18,65.31l.51,490.15c.02,22.38,5.09,39.77,23.77,52.84,40.21,28.13,81.15,54.25,124.07,79.26,35.29,20.56,70.58,37.07,104.51,60.45,9.91-.04-52.87,47.3-59.5,52.51l-115.66,91.05c-113.38,27.08-223.84,60.82-337.32,95.17l-199.67,60.46c-3.18.96-6.7,4.71-6.99,6.64-.31,2.09,2.8,5.97,7.33,5.98l335.25.75c1.91,7.95-.55,16.62-8.66,22.08-13.57,21.04-60.08,42-54.87,54.01-1.24.28-2.74-.25-4.01-.09-2.67.32-8.46-.46-8.01,3.59l-11.24,4.82-41.45,26.49c-13.62,8.71-24.75,21.05-39.66,23.71-.28-17.18,10.56-31.63,13.06-53.5l-228.38-3.12c-51.88-.71-137.01-3.91-180.42,21.35-5.88,3.42-13.96,2.49-18.87.71-.48-.17-36.04-38.4-11.45-66.94-18.59-2.5-40.96-4.09-55.41,5.12-18.08,11.54,76.32,117.13,85.84,129.01,39.62,49.41,73.29,100.92,111.8,151.75l-60.5,35.74c-12.9-7.16-20.35-20.7-30.22-32.51l-80.74-96.61c-17,7.11-39.76,9.98-50.11,23.75-11.72,15.6-2.31,40-3.58,57.49l-2.9,39.93c-1.93,26.56-4.46,49.38-15.86,72.56-.26-3.52,2.1-7.12-.16-13.59-48.18,8.14-96.28,1.51-140.32-6.94-10.84-12.95-7.18-30.45-7.82-47.99l-5.22-143.93c-.51-13.99-36.53-30.55-47.6-22.05-46.91,36.01-79.29,82.93-119.25,125.99-26.68-15.45-47.11-39.9-71.61-58.59l142.25-154.91c13.81-15.03,26.67-29.85,32.03-51.14-13.65-7.21-25.77.77-38.6,4.6l-166.76,49.83c-26.99,8.07-51.58,17.76-80.45,22.02-23.06-14.06-45.14-57.44-60.96-55.49l123.05-34.03c14.14-3.91,25.87-12.17,40.8-15.62,3.18-.74,189.88-43,160.64-59.42-43.05,4.28-81.85-.3-122.06-12.94-33.35-10.49-67.65-14.68-99.85-27.71-36.24-14.67-72.19-23.23-109.52-34.93l-197.91-62.01c-7.18-2.25-13.75-1.16-19.23-.64-14.97-11.15-56.45-41.38-63.53-56.16,1.55-6.05,9.03-6.7,12.7-12.58,52.43-83.97,125.08-151.14,211.91-199.1l80.21-44.31c13.94-7.7-24.22-42.22-23.18-64.9,1.13-24.72,38.18-41.36,57.15-26.86,20.86,15.95,31.14,37.97,50.03,54.94,166-51.33,269.14-67.55,443.2-56.57,91.15,5.75,178.37,21.66,260.26,61.29,11.32,5.48,20.96,12.09,23.99,21.64,3.65,11.5,2.72,22.97-3.96,34.52-6.22,10.76-22.4,14.95-35.65,10.77-86.76-27.34-188.7-56.07-280.47-51.89-8.09,10.63-8.18,23.21-8.21,36.77l-.37,147.9c-.07,26.84-4.66,166.41,11.31,172.34,24.84,9.22,50.5,12.62,69.92,31.5,8.6,8.36,20.61,17.11,33.91,10.77,40.62-19.35,76.83-40.94,116.24-64.64l548.84-330.08c16.19-9.74,22.87-39.83,22.97-56.82l1.61-270.76c.11-18.23-9.01-28.7-22.14-38.23l-90.59-65.74-215.3-152.21c-92.7-65.54-183.22-128.28-279.85-187.42-33.79-20.68-68.25-35.75-109.02-41.61-9.75,53-9.29,115.42-66.44,145.68-22.19,11.75-52.92-2.4-67.99-21.03-35.99-44.49-38.77-106.09-39.53-163.65-.46-35.26,7.1-69.8-1.48-104.36-4.83-10.93-30.06-24.06-41.82-21.52-17.82,10.4-31.1,31.75-45.83,46.36l-166.54,165.22c-17.39,17.25-29.98,35.99-48.91,51.65-3.26,2.7-4.58,9.76-4.04,12.63,1.55,8.13,25.6,1.27,70.35,16.07,59.81,19.77,121.24,29.32,183.88,32.34l61.03,2.95c32.63,1.57,119.06.43,147.94-5.57,14.26-2.96,29.57,5.05,36.18,14.35,6.66,9.38,4.62,26.65-2.13,36.87-13.23,20.02-39.34,20.69-61.76,21.52-16.33.61-31.45,6.64-48.16,3.36-15.53-3.05-29.44,2.85-44.22,3.34-120.87,3.99-102.51-.76-210.48-17-178.09-26.78-352.78-125.72-467.33-263.72C21.36,738.26-17.76,583.21,31.04,439.45c27.93-82.27,77.77-156.11,144.48-206.98,4.65-3.55,10.99-5.44,12.5-12.12,1.1-.5,2.88-.28,4.1-.31,30.91-.79,319.42-143.37,355.82-182.81,23.82-5.55,46.96-12.28,73.37-15.86l118.62-16.07,36.41-3.66c43.56-4.37,80.47,1.18,123.84,3.19,42.7,1.98,83.21,9.87,125.43,14.2,28.34,2.91,56.94,5.78,82.94,17.22,16.07,7.07,18.12,25.72,13.42,40.31-4.06,12.61-19.37,24.4-36.83,22.42l-129.19-14.62c-33.71-3.81-65.04-9.18-99.81-7.53l-2.98,48.29-.56,263.02c-.02,9.07,6.55,19.88,15.26,20.61,69.7,5.81,57.36,51.59,107.13,18.46l412.75-274.76c21.08-14.03,50.75-17.94,72.43-7.68,18.04,8.54,15.09,39.36-.64,52.58-38.94,32.73-81.2,60.6-125.48,88.89l-178.15,113.8-156.51,99.98c-16.72,10.68-16.63,37.92-14.61,54.89l31.9,5.3c31.29,5.2,247.69-6.45,279.14-2.51,20.13,2.52,37.95,7.09,58.6,1.59,30.73-8.19,62.22,1.07,93.31,1.24l108.46.62c47.65.27,94.44-4.33,141.3,1.21,15.05,1.78,27.8,5.14,34.26,16.66,5.18,9.23,15.38,27.59,3.24,37.16-21.9,17.27-55.18,17.12-82.48,15.1-20.35-1.5-37.58,2.18-56.39,4l-40.17,3.89c-57.58,5.57-113.96.73-171.85-1.03-59.82-1.82-83.38,7.7-156.21-3.02l-104.17-15.34c-17.26-2.54-48.33-9.36-60.33,8.07-8.95,23.04-2.89,54.52-4.28,80.56-1.15,21.47,16.6,38.69,34.39,47.06l165.28,77.73c131.01,61.61,266.82,108.22,405.31,150.78,20.35,6.25,34.97,4.64,53.79-6.09l724.94-413.13c23.51-13.4,46.55-17.54,70.01-4.19l264.85,150.74,270.33,156.77ZM83.91,564.41c.82,24.85-1.31,49.07,8.22,73.05l204.39-36.35,348.04-63.57c13.84-2.53,31.97-5.06,39.52-16,14.84-21.5.8-87.54,90.72-110.97,12.7-3.31,23.79-12.54,24.12-27.06l6.6-290.76c.14-6.11-2.18-12.16-5.18-14.06-2.61-1.65-7.46-3.16-12.46-2.8-124.9,8.85-291.93,35.07-399.96,100.96,4.45,14.38,16.64,20.43,26.29,29.3l66.81,61.45c41.07,37.78,184.81,162.02,196.56,205.84,2.79,10.4-4.23,21.53-10.71,25.03-6.83,3.69-19.97,2.98-27.57-2.08-50.27-33.47-98.17-66.9-143.43-107.57l-176.95-158.99c-18.58-16.7-241.49,137.58-235.02,334.58ZM893.64,491.16c-18.99-12.53-26.54-.07-38.36,8.12-40.87,28.31-68.08-50.24-98.03,8.81-5.25,10.35-7.85,27.81,2.34,36.75,18.29,16.04,44.08,18.98,68.26,15.32,28.52,9.21,62.68,3.05,81.75-21.14,13.02-16.51-1.69-38.44-15.96-47.86ZM167.35,791.03c47.13,65.13,146.97,147.77,219.82,177.84,51.21-63.56,100.29-123.17,156.72-180.28l165.19-167.18c4.25-4.3,3.42-9.95.71-13.35-10.95-13.77-61.5,13.87-77.74,17.24l-171.25,35.46-260.74,51.26c-26.06,5.12-51.03,4.36-77.29,12.6,9.94,24.91,26.01,45.71,44.57,66.41ZM877.93,748.66c13.27,13.03,79.14-18.83,95.7-41.98,11.56-16.16,11.55-82.77-2.38-90.83-14.6-8.44-28.11,14.48-51.26,25.06-81.55,37.25-139.15,3.2-138.61,33.23.13,6.98,6.12,11.17,15.57,13.02,47.41,9.29,95.91-8.27,139.45-26.81,41.23,35.7-75.52,71.57-58.47,88.31ZM1002.39,832.38c11.24-12.49,11.03-29.11,4.07-42.34-11.38.07-17.06,10.05-19.48,18.33-3.03,10.34,1.33,20.09,15.41,24.01ZM1506.72,1154.82c20.75,14.12,29.6-15.1,40.96-4.82,14.26,12.92,1.58,43.51,40.76,58.95,7.53-16.72,23.77-34.99,6.42-47.47l-127.87-92.04c-88.16-63.46-246.42-163.88-342.77-209.53-14.66-6.95-23.53-25.4-40.5-29.08-9.27-2.01-20.87,15.99-12.61,21.84,15.36,10.88,39.63,8.85,52.23,24.12,16.68,20.22,32.88,38.54,56.07,51.77,13.49,7.7,24.57,17.84,38.14,26.72,48.91,32.02,98.44,66.08,145.06,100.6,11.62-7.03,22.86-12.32,33.35-6.12,9.88,5.83,11.97,12.76,13.05,27.22s18.42,36.67,34.63,34.12c8.27-1.3,10.67-18.07,22.69-13.01,29.84,12.56,11.41,37.02,40.41,56.75ZM1637.21,1066.55c-31.06-16.43-62.94-25.15-95.13-32.95,29.11,37.01,63.5,60.91,101.1,81.66,7.13-13.89,10.01-40.25-5.97-48.7ZM1629.78,1192.04c-11.24,1.48-7.45,54.08,16.82,57.85.89-21.59,5.92-60.85-16.82-57.85ZM162.01,1982.12l521.4,156.73c21.99-46.45,62.2-70.2,109.98-76.6l5.25-83.99,2.84-143.75c.84-42.42,1.84-83.43-.05-125.99-90.07-5.42-221.47,15.97-305.25,50.49,42.06,75.38,105.6,148.66,142.27,218.54,5.1,9.71-7.06,19.63-13.19,22.75-32.12,16.37-67.2-29.61-86.87-50.96-44.77-48.62-80.8-101.96-119.56-157.21-57.76,7.29-240.14,128.83-256.82,189.97ZM1686.77,1822.19c5.17-1.46,10.2-4.93,10.75-8.48.75-4.82-21.8-34.59-29.82-29.71-136.4,77.17-272.85,149.33-405.8,235.75,85.29-26.48,160.4-64.36,239.76-98,71.01-32.96,113.43-79.31,185.11-99.57ZM1845.87,1936.31c7.87-5.44-70.14-57.56-76.42-56.05,10.93,21.78,26.85,37.43,41.19,58.14,6.4,9.25,33.58,7.82,35.23-2.09ZM1754.08,1970.93c-7.39-26.36-51.13-97.18-60-74.04-7.48,19.51,19.68,50.61,36.08,77.09,4.58,7.4,26.53,6.24,23.93-3.04ZM1676.97,1979.07c-12.53-15.03-21.57-34.07-39.26-44.03-10.75-6.05-22.89,9.94-22.22,20.65,1.05,16.74,9.43,28.92,22.08,38,14-1.75,25.53-5.27,39.4-14.62ZM1127.82,2182.88c24.36-6.95,43.56-24.49,68.37-32.54l69.56-22.56c42.39-13.75,83.24-31.98,126.24-43.71,20.98-5.72,34.17-18.92,53.97-26.2l141.13-51.87c2.24-5.61-7.27-25.75-15.25-25.31l-256.11,99.21c-59.63,23.1-120.52,36.6-178.25,62.38-27.96,12.49-49.61,20.2-81.84,18.9-27.03-1.09-55.87,11.46-82.79,14.92-2.54.33-.49,13.21,3.32,12.65,49.54-7.38,101.97,8.3,151.65-5.87ZM743.3,2186.7c12.65,31.64,49.7,33.58,76.29,33.31,29.05-.3,58.86.47,79.26-21.05,11.51-12.13,6.83-30.94-1.66-42.47-6.5-8.83-25.31-25.65-36.83-15.78-10.63,9.11-13.5,27.96-32.65,27.52-16.63-.38-22.11-17.38-35.7-24.57-20.29-10.74-58.34,18.96-48.71,43.04ZM882.54,2322.95c-1.47-3.27-6.12-9.02-12.18-8.85l-82.44,2.35c-7.35.21-22.59,12.36-14.25,17.89,37.68,24.96,118.24,9.44,108.87-11.39ZM863.69,2577.68c12.29-18.09,8.94-45.45-5.39-59.13-6.46-6.17-17.41.74-21.46,4.25-12.38,10.75-10.55,45.84-2.72,55.92,5.15,6.62,23.22,8.29,29.56-1.04Z"/>
    <path class="cls-1" d="M3835.77,864.82c-143.95,70.33-275.5,159.5-406.42,256.74,2.88,14.12,10.77,22.95,20.61,34.72,30.69-26.9,36.75-27.54,40.4-65.32,11.91-7,21.25,12.13,30.74,11.86,65.33-19.34,34.37-79,87.75-50.56l222.97-152.29.57,96.34-111.28,77.65-380.05,270.86c-14.85,10.58-20.61,29.58-20.64,47.4l-.46,267.58c-.06,36.05,23.36,55.29,51.83,72.47l214.13,129.22c4.85,2.92,6.84,7.06,7.19,10.69-2.7,8.25-62.36,36.55-57.47,44.36l-236.37-135c-15.56,6.15-25.3,22.25-32.24,36.63,22.73,18.03,47.01,15.04,71.97,19.13,9.52,4.82,18.74,20.77,31.13,23.58,21,4.76,30.49,23.08,47.41,33.73,24.74,15.57,50.7,33.16,78.82,45.29l-61.87,38.83c-5.37,3.37-9.38,7.92-6.52,12.88-5.27.61-12.41-5.44-19.06-2.94-11.83,4.45-18.96,16.51-23.98,26.1-11.44-2.58-23.37,7.27-33.02,13.45l-74.18,47.51c-37.61-.88-110.94-38.19-147.52-24.15-5.33,32.18-1.45,72.89,1.24,104.41-2.55,1.79-5.36,4.17-6.35,9.83-48.61,23.65-82.29,56.3-124.73,81.41-17.85-59.89-37.75-118.74-61.42-178.71-2.35-5.96-2.9-12.83-7.24-14.49s-10.06-3.36-15.44-1.27c-57.29,22.19-111.3,48.59-164.25,78.49-15.31,20.16-25.56,41.08-41.51,59.23-41.06,46.73-88.3,81.98-139.48,116.74-16.81,11.41-16.4,48.51-4.79,60.13s32.06,5.83,43.14,15.85l64.58,58.42c25.6,6.41,87.95-2.5,102.06,5.39l-99.42,1.78-141.74,81.62-97.68,58.44c-9.44,5.65-16.51,12.07-25.4,15.66l37.08-50.54c5.99-8.16-4.04-16.11-8.44-20.19-16.61-15.41-74.74,23.28-64.87,90.83l-38.17,17.01c-9.33,4.16-14.31,9.37-13.21,18.27-25.63-40-17.07-89.16,9.94-129.41,32.05-47.76,88.2-69.74,145.92-62.27,8.8,1.14,33.4-4.15,26.62-16.54-11.6-21.2-45.71-28.04-70.92-27.15-89.6,3.19-166.29,72.87-171.39,162.63-1.74,30.7-.41,65.93,15.99,93.63-5.31-6.7-11.41-2.92-19.04.99-37.61,19.26-77.23,40.14-113.26,62.07-2.5,10.96,4.8,29.53,12.14,36.12-11.29-5.53-19.17-21.22-19.22-36.85l-.84-258.59c-.04-12.85,7.64-27.22,14.99-32.14,30.37-20.34,72.56,8,101.99-27.54,60.92-73.58,51.08-36.56,132.85-53.23,15.45-10.83,12.26-53.34-2.57-65.51l-82.09-67.4c-33.66-27.64-60.52-59.94-81.43-97.99-33.28-22.92-68.08-38.23-103.81-56.02l-69.45-34.59c-4.63-2.31-11.09-2.84-14.4-.37-2.59,1.93-5.37,6.78-7.07,11.93l-69.38,210.27c-54.78,166.03-82.9,324.83-75.77,500.1.87,21.3-7.27,42.22-4.08,63.67,3.73,25.05-8.03,43.34-24.47,60.16-11.53,11.8-23.67,31.18-43.61,28.14-31.9-4.86-41.12-38.42-39.36-68.14l5.19-87.68,3.59-56.37,3.42-52.62,34.98-322.79,12.28-124.29c4.94-49.97,9.33-98.06,9.11-148.21-.04-8.56-4.67-17.26-11.46-18.99s-13.9,1.29-20.61,2.89l115.66-91.05c6.63-5.22,69.41-52.55,59.5-52.51l255.03,140.23,179.32,100.89c21.48,12.09,40.02,25.09,64.03,30.86l285.45-160.41,446.05-257.61c13.57-7.84,23.46-21.67,23.47-38.44l.42-452.88c.02-23.5,2.7-43.49-.15-67.19-4.44-36.83.56-74.25-.24-111.26-.31-14.13-7.19-21.13-18.21-27.46l-230.42-132.63c19.95-19.84,42.23-37.8,59.15-60.26l170.88,93.88c19.55,10.74,42.79,24.51,64.53,25.32,56.85,2.13,473.11-171.2,549.1-209.02l-.6,78.22c-.03,3.98,2.39,6.7,3.84,8.33ZM3328.02,1116.66c40.27-26.96,72.36-53.37,105.15-84.84-40.07,5.1-71.16,22.22-106.41,34.97-2.79,17.43-6.15,34.05,1.26,49.86ZM3378.68,1208.75c23.33-13.25,49.98-41.79,29.55-59.97-8.85-7.87-19.52.58-25.04,4.75-9.22,6.97-6.38,17.09-5.45,27.64.78,8.85-7.97,16.59.94,27.59ZM3327.74,1199.27c-13.65,5.66-4.76,33.45-6.29,56.07,20.66-11.38,25.54-64.04,6.29-56.07ZM3150.6,1944.67c18.59-20.25,37.76-36.61,50.69-61.48-34.72,11.32-60.02,33.42-84.98,53.71,8.91,5.59,26.38,16.39,34.29,7.77ZM3246.6,1978.41c11.38-21.73,20.96-39.43,32.75-58.14,4.17-6.62,4.63-12.72-.58-16.88-15.14-12.11-49.51,33.59-56.96,69.21-1.41,6.72,20.88,13.27,24.79,5.8ZM3342.59,1997.76c13.24-15.76,32.66-46.49,14.31-56.23-27.47-14.58-45.88,11.75-58.8,39.69,14.49,6.51,28.8,18.71,44.49,16.54Z"/>
    <path class="cls-4" d="M3831.48,2715.25l.6-183.31c-1.19-3.84-1.8-6.48-3.62-7.94,19.55-18.07,29.2-44.58,46.1-65.95l79.37-100.31c21.68-27.4,42.85-53.25,61.03-83.07,5.72-9.37,4.6-20.72-2.78-26.81-1.83-1.51-4.1-3.02-7.99-5.6l63.51-50.58c12.85,37.92,138.81,36.5,155.59,9.41,6.5-10.5,5.93-23.29,2.17-34.74-5.49-16.73-26.06-30.3-41.71-18.59-6.13,4.59-5.64,17.37-11.83,18.77-9.9,2.23-33.11,4.11-41.77-3.58-3.9-3.46-3.48-9.46-2.92-14.81.44-4.24-5.11-12.49-.17-16.6,26.49-22.07,56.55-37.06,80.48-59.38,52.58,4.84,76.81,64.92,84.07,69.91,4.62,3.18,8.92-3.5,13.9-4.97l148.49-43.95,358.18-109.22c-3.91-41.96-163.77-154.44-184.53-163.64,25.74-10.18,48.77-25.85,72.1-40.62,89.77,47.48,139.43,105.91,200.66,187.55,3.45,4.6,13.54,3,14.87,7.71,1.53,5.42-.49,11.09,1.27,15.97,12.45,34.5,26.34,65.12,35.74,101.18,33.59,128.79,14.42,265.53-58.28,378.1-49.93,77.31-117.94,136.61-195.34,184.77-57.35,35.69-115.15,60.05-179.65,80.69-84.06,26.9-169.57,35.15-257.18,42.35-21.88,1.8-44.24-1.18-65.6,2.52-24.24,4.2-44.5,3.19-68.95.92-101.82-9.45-203.65-25.8-295.81-66.18ZM4484.1,2235.83c129.57,34.93,257.08,66.41,384.3,108.08,13.11-38.22,15.99-73.99,21.8-110.09,7.95-49.4-16.09-158.64-45.55-204.77l-260.92,86.7c-62.07,20.62-121.3,39.43-184.98,54.36-45.69,10.71-74.45-2.02-98.13,3.4-3.56.81-4.29,6.03-2.62,6.8,1.91.88,3.84,6.38,6.84,7.19l179.26,48.33ZM4838.49,2419.06c-39.13-16.2-77.28-18.63-116.26-29.82l-288.6-82.9-99.72-32.38-36.31-15.45c-6.18-2.63-12.85-2.63-15.41,1.74-11.62,19.85,48.84,81.05,65.79,99.28l56.32,60.55c61.43,66.04,119.47,131.58,173.93,204.64,115-54.07,183.25-102.28,260.25-205.65ZM4201.9,2319.78c-13.04-11.16-70.08-3.58-97.79-3.04-7.02.14-11.42,4.82-11.47,9.33-.03,2.92,1.3,9.67,5.99,11.78,57.97,26.1,115.48-7.62,103.26-18.07ZM4502.75,2651.64c-25.94-22.28-47.24-42.37-68.07-66.6l-129.31-150.38c-10.7-12.45-20.92-29.37-37.67-33.95-18.52-5.07-38.01,8.46-51.47,19.5.27,65.35,3.46,127.57-8.56,191.48-6.12,32.51-27.36,57.7-40.76,88.02,99.57,2.28,246.67-6.08,335.84-48.05ZM3967.27,2674.84c46.71,9.35,88.75,22.87,138.44,20.95-19.52-23.87-37.34-45.42-50.15-72.06-23.53-48.95-8.32-154.7-21.92-161.77-13.34-6.94-32.59-18.19-47.51-16.05-15.64,2.24-14.48,25.46-22.6,33.79-11.24,11.52-19.51,22.17-29.95,34.27-34.22,39.66-34.14,15.88-49.24,47.22-11.96,24.82-48.13,55.76-42.89,71.04,1.49,4.33,6.31,4.49,11.07,6.9,36.45,18.41,73.29,27.42,114.74,35.71Z"/>
    <path class="cls-3" d="M4796,232.5c11.64,2.51-57.8,43.22-60,43.66-5.87-5.62-15.39-9.55-23.85-15.84l-31.88-23.7c-10.9-8.1-24.66-11.39-34.9-2.34l-57.6,50.92c-31.61,27.95-260.89,240.01-286.27,215.93-4.56-4.33-7.4-12.78-6.51-20.95,3.3-30.31,24.61-51.68,45.15-71.57l101.62-98.42,35.73-32.23,39.9-36c13.49-12.17,27.15-22.29,39.43-36.64,9.11-10.64,24.85-11.38,29.4-31.19l-133.62-53.22c-35.29-14.05-240.96-51.13-288.17-42.08-.35,34.94-.08,69.3,1.62,103.93l3.9,79.51c1.93,39.34.54,78.36.61,118.19.02,13.47,5.54,22.9,19.26,26.56,32.66,8.72,75.44,28.03,80.24,62.94l6.38,46.44c2.11,15.36,24.26,29.68,39.4,20.63l3.37.29c-2.38,2.59.02,5.13,3.16,6.89,2.23,1.25,4.12-2.81,5.98-3.56,3.31-.29,7.42-.3,10.83-.27-.19,2.9,2.37,4.53,4.74,6.25,3.1,2.25,6.74.96,8.75-2.54l7.21.62c13.08,2.34-52.27,61.52-55.88,63.44-20.43,3.64-37.34-17.22-49.03.84-4.89,7.55.18,14.88,7.66,20.37,19.1,14.01,30.54,32.77,45.53,47.61l-52.45,55.6c-21.77-.82-41.81,13.42-51.19,31.78-4.05,7.92-4.08,21.77-4.79,31.33l-96.61,107.6-50.22,58.57-9.12-14.04c-.75-17.04-4.35-31.93-7.78-53.2-25.87,10.24-53.07,12.86-76.04,26.41l-127.59,75.28-.57-96.34c19.45-17.33,42.34-30.66,64.35-46.88,3.29-2.42,2.67-8.62,3.84-10.69,1.56-2.76-3.32-11.11-8.15-9.83-53.3,14.11-31.31,33.75-56.08,32.24-1.45-1.63-3.87-4.35-3.84-8.33l.6-78.22,59.93-29.82c9.91-4.93,19.35-10.86,19.44-24.18l.58-91.9c.05-8.47-7.44-13.08-12.37-16.07-11.44-6.93-29.24-6.54-40.48.22-3.55.02-7.89-.74-11.32.05-4.53-.42-9.07-.24-15.82-1.59l-.07-54.21c42.45-.12,85.08-1.02,127.59-.58-3.19,4.99,16.84,7.08,20,.21,22.82,1.92,4.53-50.72-1.06-54.71,14.73,10.53-179.41-116.05-146.72-98.07l.23-87.02,169.07,110.38c16.55,10.8,29.64,9.81,44.23-.76,26.74-19.39,74.29-16.72,74.06-38.5l-2.39-228.27-3.27-85.49c-19.89-1.53-37.76-1.74-56.54.51l-161.59,19.3c-24.64,2.94-48.74-6.78-51.69-33.66-3.68-33.46,54.57-40.28,79.85-43.67l95.85-12.86,75.98-4c33.13-1.74,62.86-2.35,96-.1l59.92,4.07c94.05,6.39,225.22,33.91,310.17,74.57l86.61,41.46c20.27-2.46,47.21-32.06,62.82-12.17,14.66,18.67-10.62,42.03-.93,50.08l85.42,71ZM4183.67,482.99c-12.68,22.14-59.6,20.26-64.27,14.93-9.87-11.27-17.39-14.55-31.95-10.23-15.44,4.58-28.94,14.55-30.07,31.28-1.03,15.24,11.29,26.61,26.55,33.31,71.26,31.29,43.94-3.56,83.9,8.35,10.92,3.25,35.54-2.57,42.51-12.83,16.5-24.28.61-57.22-26.68-64.8ZM4034.74,656.85c45.9,24.6,103.08,48.08,151.79,26.29,8.16-3.65,5.32-14.21,1.63-17.02-21.39-16.34-66.44,8.79-131.35-23.08-28.9-14.19-38.15-41.26-58.47-29.92-7.49,4.18-9.12,13.71-7.28,24.63,3.62,21.5-5.65,51.6,10.37,70.22,8.06,9.36,85.94,66.37,102.5,43.96-9.19-36.7-105.76-58.72-69.19-95.08ZM3918.06,720.71c3.21-29.78,3.35-57.18-.13-84.66-3.21,29.78-3.35,57.18.13,84.66ZM3960.2,823.72c20.1,4.37,23.93-9.45,23.63-20.52-.2-7.33-10.78-18.32-20.65-10.87-7.34,5.54-1.73,23.13-2.97,31.39Z"/>
    <path class="cls-2" d="M2776,2446.98c1.31-.02,2.73.58,4,.3,1.22,5.5,7.5,5.1,12.06,4.75,11,7.17,23.34,19.96,23.33,35.9l-.25,255.07c-.02,16.79-10.28,30.29-22.93,36.88-31.83,10.72-81.56-3.41-108.22,8.55-44.42,19.92-62.28,87.31-174.7,93.87-61.1,3.56-121.95,1.04-180.64-18.8-19.64-6.64-70.21-49.79-78.96-60.87-23.3-29.5-67.26-2.75-89.53-22.72-7.35-6.59-14.64-25.16-12.14-36.12,36.04-21.94,75.66-42.82,113.26-62.07,7.63-3.91,13.73-7.69,19.04-.99,39.47,66.63,107.42,107.86,188.46,101.88,63.34-4.67,148.31-70.73,137.49-134.1-1.3-7.59-22.66-6.36-26.95-.74-14.52,19.04-26.32,42.28-44.27,58.78-33.69,30.97-78.53,42.16-121.41,29.05-39.53-12.09-72.95-36.53-89.49-75.76-1.1-8.9,3.89-14.11,13.21-18.27l38.17-17.01c.57,3.9,6.19,12.86,11.22,9.88,11.51-6.84,14.82-20.82,25.01-29.97,8.89-3.59,15.96-10.02,25.4-15.66l97.68-58.44,141.74-81.62,99.42-1.78ZM2735.54,2699.84c11.24-45.75.01-94.76,5.55-143.94.39-3.45-4.69-5.15-5.52-8.01-2.72-9.37-6.23-30.61-18.15-29.27-10.84,1.22-16.03,22.82-16.1,33.09-.36,51.26-2.25,100.06.82,149.7.57,9.13,10.02,17.87,15.73,18.25,10.02.66,14.6-8.58,17.67-19.81ZM2512.82,2629.46c-.66-9.57-23.52-18.42-27.72-11-5.34,9.44,4.66,18.41,9.58,20.58,4.97,2.2,18.71-1.19,18.14-9.57ZM2467.81,2664.98c-8.89-5.43-16.88-12.6-26.81-11.54-7.04.76-13.13,4.85-14.72,9.65-1.96,5.89,1.01,11.35,6.48,15.58,7.3,5.64,14.27,11.7,22.52,6.33,5.19-3.38,9.54-8.79,12.53-20.03Z"/>
    <path class="cls-1" d="M880.65,3563.44c-31.88,12.73-66.07,39.12-100.21,55.58l-68.29-111.24c-4.99-8.31-30.03-15.77-30.22-4.68l-2.88,170.93-115.28.43.62-454.96,171.39.4c14.93.03,28.99,6.32,43.51,8.1,80.41,18.94,135.63,94.78,113.26,176.23-9.63,35.06-38.24,55.71-71.16,71.31,20.46,31.53,37.28,62.76,59.26,87.9ZM783.49,3369.5c1.92-41.68-64.66-55.46-101.69-45.88-2.61,29.54-1.71,54.27-.45,85.25,31.8,8.76,100.27,1.29,102.15-39.36Z"/>
    <path class="cls-5" d="M1887.66,3251.88c1.07,5.02,8.23,3.16,12.08,3.48,1.3.11,2.75-.23,4,.13,1.16,4.21,5.4,3.21,8.59,3.84,51.9,10.34,95.03,52.13,109.49,105.96,6.38,23.76,3.14,52.28-.16,75.48-3.57,25.07-17.42,42.35-34.35,57.94-30.95,28.5-41.59,23.11-43.32,34.43-1.11,7.3,92.6,114.5,102.59,137.45l-117.85.47-87.7-123.2-68.9-.09-.91,107.32c-.05,6.1-3.86,20-10.69,20.02l-80.21.23c-1.45-2.81-4.48-6.47-4.46-12l.97-322.92,147.48-84.2c18.58.07,38.79,2.05,56.02-4.4,2.02-.76,5.15.05,7.34.04ZM1800,3455.22c-1.04,7.55,52.29,6.26,68-.05,19.29-7.75,42.24-7.13,52.4-30.46,13.72-31.5-5.91-67.55-42.05-75.08-34.08-7.1-69.44-2.9-106.37-2.03-1.21,35.06-3.87,66.03.79,100.37,1.61,7.8,20.09,6.89,27.24,7.25Z"/>
    <path class="cls-2" d="M1436.3,3663.57c-9.04-2.78-27.09-3.82-29.03,7.36-2.19-.55-4.72.54-6.95.21,1.73-2.44-1.49-3.39-4.48-3.39l-95.79-.2c-3.18,0-4.81,3.37-4.06,5.07-8.45-1.87-19,1.39-28-.01-21.7-3.39-43.85.57-68.03-1.2l-.17-318.89,143.09-89.72c4.36-2.73,6.29-6.37,5.79-10.06,74.15-6.99,147.45,18.72,193.23,81.61,18.57,25.51,37.74,52.74,40.52,86.31,2.37,28.58,5.75,60.65-.51,88.44-17.21,76.4-73.28,135.21-145.62,154.47ZM1431.5,3559.23c47.59-25.72,66.75-85.6,47.23-133.72-21.59-53.23-70.4-81.05-126.78-75.11-19.46,2.05-38.43-5.25-58.86,3.58.09,31.96.53,64.41,1.25,96.85l2.82,126.81c17.16,5.84,33.93-2.37,50.7-1.88,29.18.85,55.05-1.08,83.64-16.54Z"/>
    <path class="cls-1" d="M356.46,3595.93l-158.25.21-34.8,76.67-121.28-.05c-7.33-8.29,4.01-19.53,7.77-26.87l57.19-111.65,163.9-315.4c1.99-3.84,5.04-6.66,7.19-7.19,3.69-.92,8.29,3.75,10.66,8.36l164.87,320.26,60.89,120.89c2,3.98,1.13,7.88-.48,10.16-1.88,2.67-5.31,4.33-10.05,4.27l-108.09-1.47-39.53-78.18ZM316.99,3500.32c-14.08-32.69-22.57-57.3-37.96-82.68-15.69,31.29-28.23,55.26-35.38,84.2,26.29.34,48.97,4.2,73.34-1.52Z"/>
    <path class="cls-4" d="M4346.85,3537.83c-6.97,20.07-3.06,39.89-4.31,60.19l-4.39,71.24c-15.01,6.11-29.7,1.71-45.97,4.12-11.24,1.67-36.16,6.09-42.85-6.77-2.93-47.12,0-93.47.5-141.1l3.01-287.03,167.13-.51c47.74-.15,90.29,16.44,126.84,47.22,47.11,51.31,55.37,126.59,18.13,187.85-24.75,40.71-73.06,62.82-120.55,63.6-32.58.54-62.46-2.49-97.53,1.2ZM4491.83,3376.67c-11.92-60.31-106.3-42.02-147.69-44.84l.37,116.61c32.05,2.76,63.03,2.25,95.33,1.27,36.42-1.1,59.69-34.09,52-73.03Z"/>
    <path class="cls-5" d="M3044.07,3676.08c-10.34-54.01.36-110.43-5.41-167.72-10.44-2.46-20.54,4.17-31.28,6.91s-148.67,37.54-135.59,48.52l-60.6-52.1c-18.69-16.07-33.86-34.17-55.11-48.32v207.82c0,3.05-1.68,5.23-3.73,4.37-1.07-23.91.87-48.03-2.39-74.85-32.45,8.45-60.72,21.47-91.98,33.07-3.34,16.29-1.58,31.15-1.83,45.92-2.21,1.72-3.55-1.29-3.96-4.72l-.43-422.69c0-5.84,2.86-11.25,6.3-12.41,3.85-1.3,7.95,3.36,12.43,5.16,34.78,28.77,65.14,58.98,98.67,89.66l175.03,160.14,2.03-219.11c.08-8.17.79-14.19,10.33-16.55l87.54,1.57v415.33Z"/>
    <path class="cls-5" d="M2442.88,3275.53c1.68.1,3.49-.2,5.12.16-.64,3.45,3.48,5.84,4,1.29,36.04,24.81,68.9,58.78,84.24,101.83,20.11,56.44,16.52,115.77-7.43,169.97-18.6,42.1-51.17,72.65-91.85,96.53-97.38,57.16-226.64,29.87-294.41-59.73-34.7-45.87-46.96-96.56-41.83-150.62,9.84,9.31,123.05-71.56,115.6-44.5-11.86,31.13-23.37,63.81-13.07,96.92,13.71,44.04,45.44,71.6,87.08,86.07,21.75,7.56,38.25,6.41,60.24.75,50.82-13.09,91.18-48.65,100.98-102.57,7.02-7.7,8.25-22.12-.04-32-7.51-30.76-22.63-56.74-47.97-79.65-.8-.72-1.1-2.61-3.86-3.88l-3.35-.12c2.09-17.89-57.96-23.1-74.33-24.09,15.95-8.54,29.67-13.03,43.19-22.94,20.64-5.99,65.35-34.19,77.71-33.42Z"/>
    <path class="cls-2" d="M4323.98,1128.46l66.45-70.04c4.85-5.11,9.85-11.58,6.24-16.94,8.41-8.63,22.13-6.3,34.31-10.21,30.17-9.69,58.72-18.63,89.94-21.7,13.43,3.68-53.06-60.41-36.26-49.24-3.88-5.9,32.81-40.93,39.52-38.88l48.52,49.16c72.41-30.86,134.32-73.56,187-130.41,32.89-35.49,64.29-70.61,86.04-116.06-42.76-9.25-83.33-8.72-121.72-19.93-.15-8.68,13.37,1.54,16.45-.92l63.69-50.88c7.44-5.95,16.29-10.56,15.2-19.67,17.93,4.14,38.33.24,58.52,6.42,5.55-35.09,9.63-66.4,6.08-99.16,8.55,9.21,6.45,21.97,9.24,38.34,19.5-15.13,39.77-26.57,56.87-43.56,4.34-4.31-1.03-16.95,6.27-18.48,20.98,164.45-47,294.63-165.71,406.68-91.6,86.46-245.57,167.16-370.9,188.91-33.53,5.82-64.03,15.18-95.75,16.58Z"/>
    <path class="cls-2" d="M3112.41,2891.83c-4.49-11.78-13.06-22.37-21.05-32.03,0-1.32-.47-2.69-.33-4-.02.14,4.78-77.23-3.66-68.32l-5.8-133.25c-3.06-70.2-13.3-136.18-26.19-205.73-13-70.13-35.29-135.1-55.01-201.28,42.45-25.11,76.13-57.77,124.73-81.41,1-5.66,3.8-8.04,6.35-9.83l14.58,170.49,27.39,252.4,11.99,137.22,3.68,68c1.78,32.85,12.17,109.47-8.93,125.86-8.43,6.56-19.9,18.78-34.84,12.6s-23.24-20.7-32.92-30.72Z"/>
    <path class="cls-4" d="M3832.1,3644.18v-120.53c21.87,27.33,50.58,51.09,87.35,55.38,48.54,5.67,92.28-12.78,122.05-50.54s34.89-81.87,16.94-127.14c-14.33-36.17-48.24-65.39-92.37-76.26-49.38-12.17-102.58,7.82-129.61,49.65l-3.93-.71-1.44-18.76c-2.42-31.6.59-63.91.57-95.86,25.01-19.92,56.49-26.34,87.5-28.85,84.11-6.82,160.83,30.92,205.35,99.43,71.97,110.73,36.03,252.05-77.11,316.26-71.45,40.55-148.78,35.9-215.29-2.07Z"/>
    <path class="cls-1" d="M4171.84,1880.41c5.11,37.01-3.69,136.01,8.28,179.89,9.3,2.8,19.11,10.66,27.4,11.86-23.92,22.32-53.99,37.31-80.48,59.38-4.93,4.11.62,12.36.17,16.6-6.59-9.64-16.83-10.09-29.17-5.69-20.34,7.26-37.63,27.78-30.36,49.24l-63.51,50.58c3.89,2.58,6.16,4.09,7.99,5.6-14.15-2.07-26.47,5.5-39.88,9.15-2,.54-3.94.36-3.9,3.2.02,1.23-.3,2.48-.45,3.71-8.89,12.87-41.87,45.49-59.36,40.58-1.46-.41-3.15.02-4.58-.47-.89-4.29-5.46-3.03-8.36-4.14-24.68-9.41-52.93-16.37-70.8-36.01,3.38.15,7.1-2.6,7.11-7.85l.15-64.31c.02-7.72-4.45-12.77-8.37-16.75,9.74-.77,19.02,8.76,29.44,10.94,23.36,4.89,46.63,0,70.66,2.23,24.38,2.27,51.15,10.36,75.04-3.53-69.99-44.41-92.93-3.49-170.72-43.31,1.72-1.78,3.93-4.76,3.92-9.1l-.37-116.58,41.01,19.81c28.36,13.7,133.57,87.23,159.31,68.37s53.34-32.65,85.27-37.71c6.51-23.05,1.09-45.92,5.19-68.11s-.48-44.34.67-66.06c1.08-20.36,2.62-38.42-2.93-60.05-4.29-16.74,5.95-34.49,3.84-51.97-3.02-25.02-9.42-50.3.35-71.8,4.46,11.06,45.56-15.97,42.15-36.34,4.09,56.88-2.42,113.03,5.26,168.65Z"/>
    <path class="cls-1" d="M4699.74,1779.67c-23.33,14.77-46.37,30.44-72.1,40.62l-76.03-33.7c-60.34,81.5-95.67,140.5-170.68,209.98-11.24,10.41-50.08,10.03-55.63-8.58-1.63-5.48-2.71-14.44,1.81-20.77l147.56-206.58c-87.28-33.6-173.98-47.91-261.9-52.52-9.08-13.72,63.82-48.18,77.73-64.86-4.57-2.94-10.76-1.2-14.98-5.94,10.45-4.57,17.88,6.18,24.97-.87,2.36-.09,4.82.65,7.17.37,10.17,7.89,24.16,7.62,36.81,7.4,45.09,7.7,90,17.42,135.47,31.88,12.4,3.94,28.56,14.51,41.16,5.2,30.57-22.59,33.16-71.98,85.39-48.23,15.47,7.03,26.39,23.33,18.91,40.42-5.89,13.46-26.64,34.65-22.74,42.95,1.55,3.3,5.24,10.26,10.12,11.92,33.5,11.46,58.4,36.22,86.95,51.32Z"/>
    <path class="cls-2" d="M3828.45,2523.99c1.82,1.46,2.43,4.1,3.62,7.94l-.6,183.31c-18.54-8.12-39.49-11.95-59.56-22.2-155.87-79.57-305.52-204.27-326.75-388.32-54.32-29.85-125.14.32-140.08-40.96-4.49-12.42-4.49-34.15,9.59-40.46,8.41-3.77,19.95-6.82,29.48-6.82l126.8.07c11.11,0,18.67,10.12,20.85,19.78,8.76,38.93,17,76.13,31.18,113.07,42.64,111.05,137.15,199.33,244.73,247.36,27.63-13.89,28.76-43.22,60.74-72.77Z"/>
    <path class="cls-3" d="M3415.7,3415.6c1.88,11.94-3.43,25.28,3.25,36.04-.3,2.54-.27,5.45,0,8-8.03,10.89.38,25.05-4.32,40.44-5.85-6.34-.76-15.4-3.52-23.12l-99.28,25.73-70.66,2.03c-2.29.07-1.39,5.58-1.47,7.08-.05,1.04-.19,2.82-.14,4-5.22-16.56-5.38,76.34.25,59.7,0,1.08.3,2.38,0,3.41-.45,1.54.52,4.77,4.33,4.77l227.74-.1-.11,84.21c-1.27,3.53-5.65,7.59-11.99,7.58l-319.33-.51-.65-196.25,216.3-63.3c19.84-.76,39.8-1.58,59.58.29Z"/>
    <path class="cls-2" d="M3604,1875.22c77.72,43.28,148.39,102.09,227.71,140.4l.37,116.58c.01,4.34-2.19,7.32-3.92,9.1-11.87-6.07-28.53-8.48-43-13.31l-144.84-48.37-188.67-73.84c-9.6-3.76-18.26-7.28-23.68-14.18-2.86-4.96,1.15-9.51,6.52-12.88l61.87-38.83,159.18,68.68c15.08,6.5,29.04,15,45.09,13.53-55.04-39.45-108.24-72.74-164.99-105.55-4.89-7.8,54.77-36.1,57.47-44.36.88-.06,1.9.54,2.73.31-2.02,3.36.21,3.23,2.33,3.06,2.54-.21,4.34.05,5.84-.33Z"/>
    <path class="cls-2" d="M3384.93,2014.75c45.66,10.28,89.03,29.81,134.99,44.38,14.16,4.49,22.63,15.54,32.7,24.68,7.16,6.5,20.47,1.47,29.15,5.6,25.78,12.28,50.99,21.56,78.22,30.22l151.38,48.19c5.32,1.7,9.55,4.53,12.37,7.14,3.91,3.98,8.39,9.03,8.37,16.75l-.15,64.31c-.01,5.25-3.73,8-7.11,7.85-26.94-4.69-50.49-21.87-77.58-30.78l-108.61-35.69-237.88-81.1c-42.35-14.44-84.73-22.49-123.03-40.6l74.18-47.51c9.65-6.18,21.58-16.03,33.02-13.45Z"/>
    <path class="cls-1" d="M3832.41,560.78l.07,54.21c6.75,1.34,11.29,1.17,15.82,1.59-38.52,8.93-78.64,14.55-120.23,18.42l-44.21,4.11c-17.9,1.66-253.3,1.54-263.85.12-9.14-1.23-80.51-8.23-84.24-7.84-31.55,3.25-62.41.4-92.3-11.11-10.53-4.05-13.36-22.51-10.56-32.45,9.28-32.91,66.6-20.95,96.68-25.75,31.73-5.07,61.88-.04,94.66-.13l408.15-1.17Z"/>
    <path class="cls-5" d="M3356.12,3415.3l-216.3,63.3.09-226.7,213.91-2.22c12.48-.13,105.09-9.32,105.71,6.73,1.12,28.92-.44,56.37-.87,86.5l-178.73,1.61c-13.37.12-24.95,4.63-39.57,3.44-2.42,23.12-3.76,43.59,1.54,66.44l114.22.9Z"/>
    <path class="cls-2" d="M4300.49,1636.44c-7.1,7.05-14.52-3.69-24.97.87,4.21,4.73,10.41,3,14.98,5.94-13.91,16.68-86.81,51.13-77.73,64.86-12.66-.66-25.44-2.07-40.42.97l-.51,171.33c-7.68-55.62-1.17-111.77-5.26-168.65,3.4,20.37-37.69,47.4-42.15,36.34.95-7.05-2.24-16.32-.74-23.67.81-3.97.8-8.53.03-13.85-.48-3.32-4.86-2.44-8.04-2.6-41.35-2.12-143.62,9.33-184.01,20.72l-108.33,30.53c-10.78,3.04-18.91,1.8-26.78-2.85-1.9-4.24-4.5-7.24-9.16-13.84,23.4-27.13,50.51-30.23,44.96-57.8,12.51-4.78,24.02-13.15,38.86-17.95,62.39-20.18,124.95-29.07,190.02-37.23,18.2-2.28,36.45,1.56,54.45-1.73,22.76-4.16,42.15-1.57,64.91-.67l77.64,3.06c15.44.61,29.46.84,42.25,6.24Z"/>
    <path class="cls-2" d="M2442.88,3275.53c-12.36-.77-57.07,27.43-77.71,33.42-13.52,9.9-27.24,14.39-43.19,22.94,16.38.99,76.43,6.2,74.33,24.09-33.97-11.52-31.81-20.87-78.34-18.56-41.47,2.06-74.83,20.81-101.66,53.04,7.45-27.06-105.76,53.81-115.6,44.5,10.59-111.65,109.97-200.72,223.31-196.33,37.97,1.47,73.25,6.63,106.82,26.06,5.16,2.99,11.68,4.67,12.03,10.84Z"/>
    <path class="cls-1" d="M3832.45,320.61l-.23,87.02c-99.01-54.44-192.54-118.49-285.43-185.41-9.34-6.73-18.79-18.64-18.46-29.48.48-16.05,14-27.29,24.96-32.71,12.91-6.38,29.92-7.4,43.07,1.47l236.1,159.12Z"/>
    <path class="cls-5" d="M4956.34,516.3c-7.31,1.52-1.93,14.16-6.27,18.48-17.1,17-37.37,28.43-56.87,43.56-2.79-16.36-.69-29.13-9.24-38.34-11.82-109.01-71.83-190.95-147.96-263.83,2.2-.45,71.64-41.15,60-43.66,86.13,71.6,146.03,171.68,160.34,283.8Z"/>
    <path class="cls-3" d="M3831.1,3355.28l1.44,18.76c-1.7,2.62-2.65,6.63-3.77,9.62-20.94,55.8-26.41,84.56,3.34,139.99v120.53c-62.34-35.58-104.15-91.74-114.14-168.2-3.81-29.16-3.2-64.96,10.52-92.45l102.61-28.25Z"/>
    <path class="cls-5" d="M4043.79,947.83l9.12,14.04,50.22-58.57,96.61-107.6c.71-9.56.74-23.41,4.79-31.33.33,58.87,3.74,117.95-2.25,178.23-4.86,48.92-37.02,115.17-94.14,105.13-33.5-5.88-62.65-61.62-64.34-99.89Z"/>
    <path class="cls-5" d="M4396.67,1041.48c3.61,5.36-1.39,11.83-6.24,16.94l-66.45,70.04c-2.2.1-5.48-.81-7.48.04-10.77-10.59-26.94-1.76-41.43-1.23-46.57,1.7-92.31,4.76-138.76.1l-40.25-4.03c-14.11-1.41-29.83-9.39-40.9.79h-6.82c-1.88-8.87-12.86-8.49-20.35-7.49-1.02.14-2.62.19-3.6-.12.14-3.91-1-8-4.28-10.45-2.36-1.76-5.42-2.22-8.31-2.17-6.97-11.26-5.05-23.99-.07-35.43,22.72-12.83,51.52-9.65,80.09-3.95l148.31-.1c4.77,0,8.79-1.25,7.85-5.09,2.2.95,5.58-.4,8-.03,11.94,1.84,72.74-.43,76.17-7.32l4-.12c5.22-.15,13.65,2.08,15.8-4.04,7.33-3.47,15.47-5.13,23.71-3.78,2.97.49,5.85,5.34,9.63,3.35,2.15-1.14,2.86-4.16,3.26-6.45l8.12.54Z"/>
    <path class="cls-5" d="M4524.18,921.45c-6.71-2.05-43.4,32.98-39.52,38.88-15.52-10.32-26.51-26-42.17-38.32-21.06-16.57-38.9-33.21-49.55-59.17-2.99-7.28-17.11-4.7-21.55-9.52-8.51-9.24-10.91-24.27-21.25-31.42-11.75-8.12-20.71-15.94-23.7-32.17-33.89,2.07-30.66-36.61-70.72-57.16l52.45-55.6,36.01,35.63,117.89,133.83c22.47,25.51,39.57,52.17,62.11,75.01Z"/>
    <path class="cls-3" d="M3044.07,3676.08c2.16,11.29-1.23,23.73-.02,35.12l-8.05,1.02c-18.85-4.27-27.12-26.01-43.11-37.81-21.3-15.71-92.95-86.42-121.1-110.63-13.08-10.98,124.51-45.7,135.59-48.52s20.84-9.37,31.28-6.91c5.77,57.29-4.93,113.71,5.41,167.72Z"/>
    <path class="cls-1" d="M547.95,37.23c-36.4,39.44-324.92,182.02-355.82,182.81,1.67-4.67,5.68-8.69,10.73-12.5l50.22-37.86c25.8-19.45-12.57-40.86,10.07-60.07,27.58-23.39,37.99,26.73,70.58,8.55,67.96-37.91,139.99-63.62,214.23-80.93Z"/>
    <path class="cls-2" d="M880.65,3563.44l26.03,29.78,50.58,75.07c-8.13,6.4-18.61,6.78-29.05,6.8l-116.13.2c-10.31-20.39-26.77-35.53-31.64-56.27,34.14-16.46,68.33-42.85,100.21-55.58Z"/>
    <path class="cls-1" d="M1348.68,3252.74c.51,3.69-1.43,7.33-5.79,10.06l-143.09,89.72.17,318.89c24.18,1.78,46.33-2.18,68.03,1.2-16.92,7.28-36.02.48-56.5,3.45-9.41,1.36-19.31-6.49-19.29-17.46l.49-274.51,1.12-36.67c.79-25.94,4.24-50.79,2.44-75.39,5.27-1.21,3.06-8.71,2.86-12.69,8.76-18.98,120.22-3.82,149.56-6.59Z"/>
    <path class="cls-5" d="M3831.66,3259.42c.02,31.95-2.99,64.26-.57,95.86l-102.61,28.25c3.94-41.85,68.75-115.49,103.18-124.11Z"/>
    <path class="cls-3" d="M2752.35,3675.57c.09,1.99-.1,3.08-.1,3.58l-44.33.52c-3.8.04-9.42,1.01-8.24,4.1-16.43.93-32.18,3.14-43.53-4.06.25-14.77-1.52-29.63,1.83-45.92,31.26-11.6,59.53-24.61,91.98-33.07,3.26,26.82,1.32,50.94,2.39,74.85Z"/>
    <path class="cls-1" d="M1544.01,2292.88c-5.21-12,41.3-32.97,54.87-54.01,8.11-5.46,10.57-14.13,8.66-22.08,11.82.03,30.74,6.61,37.61,16.25,8.45,11.85,8.79,29.23,1.39,38.96-19.05,25.03-58.64,10.86-102.53,20.87Z"/>
    <path class="cls-1" d="M1880.33,3251.84c-17.23,6.45-37.44,4.46-56.02,4.4l-148-.52.52,84.72-.97,322.92c-.02,5.53,3.01,9.19,4.46,12-22.4.06-9-64.69-8.99-68.34l1.08-358.73,187.66-.81c8.25-.04,15.06.74,20.25,4.36Z"/>
    <path class="cls-2" d="M3239.71,3511.79c.07-1.5-.82-7.01,1.47-7.08l70.66-2.03,99.28-25.73c2.76,7.72-2.32,16.79,3.52,23.12,4.71-15.39-3.7-29.55,4.32-40.44,1.47,13.73,1.98,27.64.26,43.35-8.22,4.11-17.36,5.04-27.24,5.01l-128.07-.43c-9.41-.03-17.88-.52-24.2,4.22Z"/>
    <path class="cls-2" d="M4316.5,1128.5c-21.99,9.33-46.8.14-71.45,4.77-37.59,7.06-75.07,2.13-112.67-.59-11.3-.82-77.65-4.23-77.21-8.56,11.07-10.17,26.78-2.2,40.9-.79l40.25,4.03c46.45,4.66,92.19,1.6,138.76-.1,14.49-.53,30.66-9.36,41.43,1.23Z"/>
    <path class="cls-1" d="M3832.37,1684.73c5.55,27.57-21.56,30.67-44.96,57.8,4.66,6.61,7.26,9.61,9.16,13.84-11.02-6.51-23.94-19.95-19.52-34.18,8.4-27.07,34.32-29.44,55.32-37.46Z"/>
    <path class="cls-2" d="M4248,1059.33c.94,3.83-3.08,5.08-7.85,5.09l-148.31.1c-28.58-5.7-57.37-8.88-80.09,3.95,9.14-21.02,59.7-11.4,88.2-9.12,28.14,2.25,55.92,1.28,84.21.23,22.07-.82,44.22-8.73,63.85-.24Z"/>
    <path class="cls-4" d="M3908.58,2304.5c17.49,4.91,50.47-27.7,59.36-40.58-1.95,16.31-3.82,51.18-33.84,52.9-9.14.53-19.62-4.58-25.52-12.32Z"/>
    <path class="cls-2" d="M3471.78,3667.78l.11-84.21-227.74.1c-3.81,0-4.78-3.23-4.33-4.77l235.32,1.32c-.92,31.21,6.13,61.15-3.37,87.56Z"/>
    <path class="cls-1" d="M1400.33,3671.14c-9.97,8.32-90.39,4.56-104.33,1.48-.75-1.7.87-5.07,4.06-5.07l95.79.2c2.99,0,6.21.95,4.48,3.39Z"/>
    <path class="cls-4" d="M4683.25,3619.15c-5.8-4.37-21.6-8.52-21.29-19.8s15.75-17.52,22.2-23.89l-.91,43.69Z"/>
    <path class="cls-1" d="M3091.03,2855.8c-8.9-20.93-10.46-46.62-3.66-68.32,8.45-8.91,3.65,68.46,3.66,68.32Z"/>
    <path class="cls-1" d="M2792.21,2779.89c-1.26,4.53-5.55,7.99-12.04,8.03l-96.18.53c26.66-11.96,76.39,2.17,108.22-8.55Z"/>
    <path class="cls-2" d="M4332.17,1051.98c-3.43,6.88-64.23,9.15-76.17,7.32,12.95-4.79,58.75-6.81,76.17-7.32Z"/>
    <path class="cls-2" d="M3239.82,3575.49c-5.63,16.64-5.47-76.26-.25-59.7.85,19.88.42,39.8.25,59.7Z"/>
    <path class="cls-1" d="M2752.24,3679.15c-15.7,8.94-35.37,3.65-52.57,4.62-1.18-3.09,4.44-4.06,8.24-4.1l44.33-.52Z"/>
    <path class="cls-1" d="M1436.3,3663.57c-9.33,2.48-18.21,10.08-29.03,7.36,1.94-11.18,19.99-10.13,29.03-7.36Z"/>
    <path class="cls-1" d="M3900.09,616.31l-40.48.22c11.24-6.76,29.04-7.15,40.48-.22Z"/>
    <path class="cls-2" d="M3418.95,3451.64c-6.68-10.77-1.38-24.1-3.25-36.04,7.83.74,4.15,28.46,3.25,36.04Z"/>
    <path class="cls-2" d="M4048.35,1124.13c-7.51,0-16.07-.67-20.35-7.49,7.49-.99,18.47-1.38,20.35,7.49Z"/>
    <path class="cls-2" d="M4344.47,1644.21c-12.64.22-26.64.49-36.81-7.4,12.83-1.57,25.16,5.41,36.81,7.4Z"/>
    <path class="cls-1" d="M4123.7,1724.43c-5.62-3.53-4.36-11.47-8.01-16.45,3.18.16,7.55-.72,8.04,2.6.77,5.32.79,9.88-.03,13.85Z"/>
    <path class="cls-2" d="M4388.56,1040.95c-.39,2.29-1.1,5.31-3.26,6.45-3.77,1.99-6.66-2.87-9.63-3.35,1.3-5.27,8.82-3.08,12.88-3.1Z"/>
    <path class="cls-1" d="M3980,560.41c-3.16,6.87-23.19,4.78-20-.21l20,.21Z"/>
    <path class="cls-1" d="M3112.41,2891.83c-8.77-9.07-21.06-18.25-21.05-32.03,7.99,9.67,16.56,20.25,21.05,32.03Z"/>
    <path class="cls-2" d="M4024.4,1116.52c-6.27-1.98-9.38-7.44-12.59-12.63,2.89-.04,5.95.41,8.31,2.17,3.28,2.45,4.42,6.54,4.28,10.45Z"/>
    <path class="cls-2" d="M4351.97,1047.82c-2.15,6.12-10.58,3.89-15.8,4.04,1.77-6.77,11.12-1.82,15.8-4.04Z"/>
    <path class="cls-1" d="M1899.75,3255.37c-3.85-.32-11.01,1.54-12.08-3.48,3.87-.02,11.24-1.61,12.08,3.48Z"/>
    <path class="cls-1" d="M2792.06,2452.04c-4.57.34-10.85.74-12.06-4.75,5.3-1.14,8.33,2.32,12.06,4.75Z"/>
    <path class="cls-2" d="M1196.26,3272.02c-.4-5.52.76-8.14,2.86-12.69.21,3.98,2.42,11.48-2.86,12.69Z"/>
    <path class="cls-5" d="M3044.05,3711.2c.34,3.25-2.45,5.06-5.57,4.51-1.33-.24-1.6-1.8-2.49-3.49l8.05-1.02Z"/>
    <path class="cls-1" d="M1540,2292.79c-1.49,3.25-5.52,2.52-8.01,3.59-.45-4.05,5.34-3.27,8.01-3.59Z"/>
    <path class="cls-4" d="M3904,2304.03c-2.64-.91-8.72-.11-8.36-4.14,2.9,1.1,7.47-.15,8.36,4.14Z"/>
    <path class="cls-1" d="M1912.34,3259.33c-3.19-.63-7.43.37-8.59-3.84,2.72.76,9.02-.36,8.59,3.84Z"/>
    <path class="cls-1" d="M3604,1875.22c-1.5.39-3.3.13-5.84.33-2.12.17-4.35.3-2.33-3.06,3.4-.93,5.57,1.28,8.17,2.73Z"/>
    <path class="cls-1" d="M175.52,232.47c2.69-5.31,7.07-9.63,12.5-12.12-1.51,6.68-7.85,8.58-12.5,12.12Z"/>
    <path class="cls-4" d="M3968.39,2260.22c-.04-2.84,1.9-2.66,3.9-3.2,1.5,3.08-2.09,2.91-3.9,3.2Z"/>
    <path class="cls-2" d="M2448,3275.69c1.21.27,2.99.59,4,1.29-.52,4.54-4.64,2.16-4-1.29Z"/>
    <path class="cls-5" d="M4819.36,632.74c1.08,9.1-7.76,13.72-15.2,19.67l-63.69,50.88c-3.08,2.46-16.59-7.76-16.45.92-1.2-.35-2.75-.18-3.99-.29-.74-2.37-2.19-4.51-4.09-5.91-3.38-2.47-6.66.19-8.71,2.73l-153.75-29.63c-56.63-10.91-111.33-20.47-166.49-37.66-28.61-8.92-59.46-8.95-82.97-25.27,3.61-1.92,68.96-61.1,55.88-63.44,154.73,13.28,307.85,52.99,459.46,88.01Z"/>
    <path class="cls-5" d="M3918.06,720.71c-3.48-27.48-3.34-54.88-.13-84.66,3.48,27.48,3.34,54.88.13,84.66Z"/>
    <path class="cls-5" d="M4315.85,537.06c-15.14,9.05-37.29-5.27-39.4-20.63,11.05,10.77,24.42,17.16,39.4,20.63Z"/>
    <path class="cls-5" d="M4352.68,544.11c-2.01,3.5-5.65,4.79-8.75,2.54-2.37-1.72-4.93-3.35-4.74-6.25,4.32.04,11.71-1.13,13.49,3.71Z"/>
    <path class="cls-5" d="M4328.36,540.68c-1.86.75-3.75,4.8-5.98,3.56-3.14-1.75-5.53-4.3-3.16-6.89,3.52-1.11,8.06-.8,9.13,3.33Z"/>
    <path class="cls-1" d="M2735.54,2699.84l.03-151.96c.83,2.87,5.91,4.56,5.52,8.01-5.54,49.18,5.69,98.19-5.55,143.94Z"/>
    <polygon class="cls-2" points="1824.3 3256.24 1676.83 3340.43 1676.31 3255.71 1824.3 3256.24"/>
    <path class="cls-1" d="M1868,3455.16c-15.71,6.31-69.04,7.6-68,.05,16.98.86,49.56.64,68-.05Z"/>
    <path class="cls-1" d="M2451.54,3471.63c.73-10.66.75-21.35-.04-32,8.29,9.88,7.06,24.31.04,32Z"/>
    <path class="cls-2" d="M2403.53,3359.98c-2.24.1-3.69-1.78-3.86-3.88,2.76,1.28,3.06,3.16,3.86,3.88Z"/>
    <path class="cls-5" d="M3836.46,3374.75c-2.16,3.34-3.54,7.47-7.7,8.91,1.12-2.99,2.07-7,3.77-9.62l3.93.71Z"/>
    <path class="cls-4" d="M2940.43,984.12c-36.92,49.06-82.93,105.47-115.38,156.37l-163.45-89.19c-28.89-15.77-53.76-34.48-84.54-48.1l-.88,216.69c-2.23-1.62-3.1,1.74-4.01,4.59l-.51,155.26c-3.42,11.32-14.73,14.48-22.25,21.96-51.16,50.9-104.33,96.15-164.96,140.48l-.14,481.97c-2.84,1.19-4.47-4.05-4.46-8.47l.88-475.58.58-534.18c-69.09,35.26-130.42,72.35-194.24,109.42-18.49,10.74-31.14,25.52-39.14,44.97l-102.27,193.17-197.46,368.04c-21.95-6.19-37.32-18.26-51.49-35.09l-1.49-553.68c-.04-15.09,7.23-24.23,18.79-30.75l80.06-45.15,552.22-318.06c11.44-6.59,27.44-21.83,41.49-13.95l286.49,160.54,166.19,98.76Z"/>
    <path class="cls-1" d="M2825.05,1140.49c32.45-50.9,78.46-107.3,115.38-156.37l226.78,125.47,1.9,446,.63,100.71c.2,32.64-38.3,51.65-65.08,63.69-68.5-40.37-124.53-92.66-175.53-153.06-7.05-8.35-25.94-21.19-19.97-33.13,15.48-19.32,41.28-28.69,59.59-44.47,30.46-26.25,51.61-56.23,61.87-94.65,18.68-69.92-8.88-137.02-70.13-174.99-45.17-28-89.89-54.34-135.44-79.2Z"/>
    <path class="cls-1" d="M2384.3,2024.15l.14-481.97c60.63-44.33,113.79-89.58,164.96-140.48,7.52-7.48,18.83-10.63,22.25-21.96l.51-155.26c.91-2.85,1.79-6.21,4.01-4.59l.76,775.51c.02,22.93-8.07,35.85-26.62,47.86l-69.38,44.9-76.82-44.06c-7.46-4.28-18.67-12.07-19.82-19.96Z"/>
    <path class="cls-1" d="M2711.03,1954.82c-4.07,2.34-9.78,1.26-12.41.47-2.84-.86-3.47-6.32-3.47-11.25l-.39-267.75c-.03-18.13,2.1-33.22,18.81-42.75l43.5-24.83c12.05-6.87,20.86-4.71,30.57,4.17l173.05,158.25c9.05,8.27,18.68,15.24,20.1,28.94l-269.75,154.76Z"/>
    <path class="cls-1" d="M1980.04,1807.13c.21-5.42,3.89-9.84,8.58-14.5l96.31-95.47c14.13-22.33,34.06-37.43,53.51-54.46l21.54-18.86,71.55,8.75c10.96,1.34,15.45,13.51,15.47,23.82l.52,291.89c.01,5.82-14.72,5.69-18.95,3.24-83.82-48.61-169.31-91.65-248.52-144.42Z"/>
    <path class="cls-1" d="M2892.29,1419.01c-34.68,22.66-68.9,39.78-104.51,57.47l-85.3,42.39c-3.95,1.96-7.96-10.13-7.93-14.88l1.64-312.17c.05-9.5,20.48-.94,26.93,2.67l144.59,80.93c26.94,15.08,45.7,37.78,53.43,67.58,7.41,28.56-2.77,58.96-28.86,76.01Z"/>
    <path class="cls-4" d="M2110.66,1504.28c-7.97-.86-13.85-3.91-16.6-8.04-6.29-9.43,34.09-79.77,42.32-95.5l44.01-84.11c8.37-16,44.07-87.19,57.5-85.74,4.95.53,9.48,5.8,9.53,13.55l1.75,255.6c.04,5.91-2.69,12.23-5.62,13.88-3.3,1.87-10.25,3.52-15.72,2.94l-117.16-12.59Z"/>
    <path class="cls-4" d="M2159.98,1623.86l-21.54,18.86c-19.44,17.02-39.37,32.12-53.51,54.46l-96.31,95.47c-4.7,4.65-8.37,9.08-8.58,14.5-3.97-1.01-13.62-6.37-11.53-11.18,25.94-59.67,54.59-115.89,85.86-174.84,36.4-4.13,71.12-1.48,105.61,2.74Z"/>
    <path class="cls-2" d="M4720.03,703.91c-4.14-.39-10.84,1.57-12.81-3.18,2.05-2.54,5.34-5.19,8.71-2.73,1.91,1.39,3.35,3.54,4.09,5.91Z"/>
  </g>
</svg>